<svg width="16" height="16" viewBox="0 0 16 16" fill="none" xmlns="http://www.w3.org/2000/svg">
<path fill-rule="evenodd" clip-rule="evenodd" d="M10.1459 4.646C10.1924 4.59944 10.2475 4.56249 10.3083 4.53729C10.369 4.51208 10.4341 4.49911 10.4999 4.49911C10.5657 4.49911 10.6308 4.51208 10.6916 4.53729C10.7523 4.56249 10.8075 4.59944 10.8539 4.646L13.8539 7.646C13.9005 7.69245 13.9374 7.74762 13.9626 7.80837C13.9878 7.86911 14.0008 7.93423 14.0008 8C14.0008 8.06577 13.9878 8.13089 13.9626 8.19163C13.9374 8.25238 13.9005 8.30756 13.8539 8.354L10.8539 11.354C10.76 11.4479 10.6327 11.5006 10.4999 11.5006C10.3671 11.5006 10.2398 11.4479 10.1459 11.354C10.052 11.2601 9.99929 11.1328 9.99929 11C9.99929 10.8672 10.052 10.7399 10.1459 10.646L12.7929 8L10.1459 5.354C10.0994 5.30756 10.0624 5.25238 10.0372 5.19163C10.012 5.13089 9.99902 5.06577 9.99902 5C9.99902 4.93423 10.012 4.86911 10.0372 4.80837C10.0624 4.74762 10.0994 4.69245 10.1459 4.646V4.646Z" fill="white"/>
<path fill-rule="evenodd" clip-rule="evenodd" d="M2 8C2 7.86739 2.05268 7.74021 2.14645 7.64645C2.24021 7.55268 2.36739 7.5 2.5 7.5H13C13.1326 7.5 13.2598 7.55268 13.3536 7.64645C13.4473 7.74021 13.5 7.86739 13.5 8C13.5 8.13261 13.4473 8.25979 13.3536 8.35355C13.2598 8.44732 13.1326 8.5 13 8.5H2.5C2.36739 8.5 2.24021 8.44732 2.14645 8.35355C2.05268 8.25979 2 8.13261 2 8Z" fill="white"/>
</svg>
