<svg width="24" height="24" viewBox="0 0 24 24" fill="none" xmlns="http://www.w3.org/2000/svg">
<path fill-rule="evenodd" clip-rule="evenodd" d="M12 24C18.6274 24 24 18.6274 24 12C24 5.37258 18.6274 0 12 0C5.37258 0 0 5.37258 0 12C0 18.6274 5.37258 24 12 24ZM9.99757 12C9.99757 10.8983 10.8967 9.99915 11.9984 9.99915C13.1001 9.99915 13.9992 10.8983 13.9992 12C13.9992 13.1017 13.1001 14.0009 11.9984 14.0009C10.8967 14.0009 9.99757 13.1017 9.99757 12ZM17.9996 11.6969C17.9994 11.7978 17.9993 11.8989 17.9993 12C17.9993 12.1131 17.9995 12.2261 17.9997 12.3389C18.0007 13.0528 18.0018 13.7625 17.9603 14.4767C17.9138 15.4373 17.6961 16.2884 16.9922 16.9924C16.2897 17.6948 15.4371 17.914 14.4765 17.9605C13.7504 18.0014 13.029 18.0006 12.303 17.9998C12.202 17.9997 12.101 17.9996 11.9999 17.9996C11.899 17.9996 11.7981 17.9997 11.6974 17.9998C10.9723 18.0006 10.2507 18.0014 9.52326 17.9605C8.56263 17.914 7.71157 17.6963 7.00761 16.9924C6.30515 16.2899 6.086 15.4373 6.03947 14.4767C5.99862 13.7505 5.99942 13.0278 6.00022 12.3025C6.00033 12.2018 6.00045 12.1009 6.00045 12C6.00045 11.8991 6.00033 11.7982 6.00022 11.6975C5.99942 10.9724 5.99862 10.2508 6.03947 9.52333C6.086 8.56268 6.30365 7.7116 7.00761 7.00763C7.71007 6.30515 8.56263 6.086 9.52326 6.03947C10.2494 5.99862 10.9708 5.99942 11.6968 6.00022C11.7977 6.00033 11.8988 6.00045 11.9999 6.00045C12.1008 6.00045 12.2016 6.00033 12.3024 6.00022C13.0274 5.99942 13.7491 5.99862 14.4765 6.03947C15.4371 6.086 16.2882 6.30365 16.9922 7.00763C17.6946 7.7101 17.9138 8.56268 17.9603 9.52333C18.0012 10.2494 18.0004 10.9709 17.9996 11.6969ZM8.91986 12C8.91986 13.7037 10.2948 15.0786 11.9984 15.0786C13.702 15.0786 15.0769 13.7037 15.0769 12C15.0769 10.2963 13.702 8.92142 11.9984 8.92142C10.2948 8.92142 8.91986 10.2963 8.91986 12ZM14.484 8.79533C14.484 9.1931 14.8052 9.51432 15.203 9.51432C15.2974 9.51444 15.391 9.49592 15.4783 9.45983C15.5656 9.42374 15.6449 9.37079 15.7116 9.304C15.7784 9.23721 15.8314 9.1579 15.8675 9.07062C15.9036 8.98333 15.9221 8.88979 15.922 8.79533C15.922 8.39757 15.6008 8.07635 15.203 8.07635C14.8052 8.07635 14.484 8.39757 14.484 8.79533Z" fill="white"/>
</svg>
