<svg fill="none" height="143" viewBox="0 0 143 143" width="143" xmlns="http://www.w3.org/2000/svg"><path d="m143 0h-143v143h143z" fill="#fff"/><path d="m43.7015 86.19h4.758v11.31h-6.786c-4.888 0-8.684-1.066-11.388-3.198-2.652-2.184-3.978-5.902-3.978-11.154v-18.096h-4.056v-11.076h4.056v-10.608h13.338v10.608h8.736v11.076h-8.736v18.096c0 2.028 1.352 3.042 4.056 3.042zm43.3713-2.418c1.924-1.872 2.886-4.524 2.886-7.956s-.962-6.084-2.886-7.956-4.134-2.808-6.63-2.808-4.706.936-6.63 2.808c-1.924 1.82-2.886 4.446-2.886 7.878s.962 6.084 2.886 7.956 4.134 2.808 6.63 2.808 4.706-.91 6.63-2.73zm-16.146-24.102c2.964-4.108 7.202-6.162 12.714-6.162 5.564 0 10.27 2.106 14.118 6.318 3.8482 4.16 5.7722 9.49 5.7722 15.99s-1.924 11.83-5.7722 15.99c-3.848 4.16-8.502 6.24-13.962 6.24s-9.75-2.288-12.87-6.864v6.318h-13.3383v-57.72h13.3383zm52.5912 30.576c0 2.028-.702 3.744-2.106 5.148s-3.146 2.106-5.226 2.106c-2.028 0-3.744-.702-5.148-2.106s-2.106-3.12-2.106-5.148c0-2.08.702-3.822 2.106-5.226s3.12-2.106 5.148-2.106c2.08 0 3.822.702 5.226 2.106s2.106 3.146 2.106 5.226z" fill="#000"/></svg>