<svg fill="none" height="130" viewBox="0 0 598 130" width="598" xmlns="http://www.w3.org/2000/svg"><path d="m578.5 13h-364c-10.77 0-19.5 8.7304-19.5 19.5v65c0 10.77 8.73 19.5 19.5 19.5h364c10.77 0 19.5-8.73 19.5-19.5v-65c0-10.7696-8.73-19.5-19.5-19.5z" fill="#fff"/><path d="m251.887 77.272c1.924-1.8719 2.886-4.5239 2.886-7.9559 0-3.4321-.962-6.084-2.886-7.956s-4.134-2.808-6.63-2.808-4.706.936-6.63 2.808c-1.924 1.8199-2.886 4.446-2.886 7.878s.962 6.084 2.886 7.956 4.134 2.8079 6.63 2.8079 4.706-.91 6.63-2.73zm-16.146-24.1019c2.964-4.108 7.202-6.162 12.714-6.162 5.564 0 10.27 2.106 14.118 6.318 3.848 4.16 5.772 9.49 5.772 15.99 0 6.4999-1.924 11.8299-5.772 15.9899s-8.502 6.24-13.962 6.24-9.75-2.288-12.87-6.8639v6.3179h-13.338v-57.7199h13.338zm41.125 37.8299v-57.7199h13.338v57.7199zm51.58-13.8059c1.924-1.872 2.886-4.524 2.886-7.956s-.962-6.0581-2.886-7.878c-1.924-1.872-4.134-2.808-6.63-2.808s-4.706.936-6.63 2.808-2.886 4.5239-2.886 7.956c0 3.432.962 6.084 2.886 7.9559 1.924 1.82 4.134 2.73 6.63 2.73s4.706-.9359 6.63-2.8079zm-23.946 8.1119c-3.848-4.16-5.772-9.49-5.772-15.9899 0-6.5 1.924-11.83 5.772-15.99 3.848-4.212 8.528-6.318 14.04-6.318 5.564 0 9.828 2.054 12.792 6.162v-5.694h13.338v43.5239h-13.338v-6.3179c-3.224 4.5759-7.54 6.8639-12.948 6.8639s-10.036-2.08-13.884-6.24zm54.697.1561c-4.004-4.056-6.006-9.464-6.006-16.224s2.002-12.142 6.006-16.146c4.056-4.056 9.282-6.084 15.678-6.084 5.304 0 9.802 1.326 13.494 3.978 3.692 2.6 6.136 6.344 7.332 11.232h-14.43c-1.248-2.6-3.302-3.9-6.162-3.9-2.808 0-4.914 1.014-6.318 3.042-1.352 1.976-2.028 4.602-2.028 7.878s.676 5.928 2.028 7.956c1.404 1.976 3.432 2.964 6.084 2.964 1.664 0 2.964-.286 3.9-.858s1.768-1.586 2.496-3.042h14.43c-1.196 4.68-3.666 8.398-7.41 11.154s-8.216 4.1339-13.416 4.1339c-6.396 0-11.622-2.0279-15.678-6.0839zm62.448-5.772h4.758v11.3099h-6.786c-4.888 0-8.684-1.0659-11.388-3.1979-2.652-2.184-3.978-5.902-3.978-11.154v-18.096h-4.056v-11.076h4.056v-10.608h13.338v10.608h8.736v11.076h-8.736v18.096c0 2.028 1.352 3.042 4.056 3.042zm26.055-37.128c-1.508 1.508-3.354 2.262-5.538 2.262s-4.03-.754-5.538-2.262-2.262-3.354-2.262-5.538c0-2.236.754-4.108 2.262-5.616s3.354-2.262 5.538-2.262 4.03.754 5.538 2.262 2.262 3.38 2.262 5.616c0 2.184-.754 4.03-2.262 5.538zm-12.168 48.4379v-43.5239h13.338v43.5239zm51.191-13.65c1.768-1.8719 2.652-4.5759 2.652-8.1119s-.91-6.214-2.73-8.034c-1.82-1.872-3.978-2.808-6.474-2.808s-4.654.936-6.474 2.808c-1.768 1.82-2.652 4.498-2.652 8.034s.91 6.24 2.73 8.1119c1.872 1.872 4.056 2.8081 6.552 2.8081s4.628-.9361 6.396-2.8081zm-22.698 8.034c-4.368-4.1079-6.552-9.5159-6.552-16.2239s2.184-12.064 6.552-16.068c4.368-4.056 9.776-6.084 16.224-6.084s11.83 2.028 16.146 6.084c4.368 4.004 6.552 9.36 6.552 16.068s-2.158 12.116-6.474 16.2239c-4.316 4.1081-9.698 6.162-16.146 6.162s-11.882-2.0539-16.302-6.162zm60.864-37.9079v6.396c2.756-4.576 7.15-6.864 13.182-6.864 4.992 0 9.022 1.664 12.09 4.992 3.12 3.328 4.68 7.852 4.68 13.572v25.4279h-13.26v-23.6339c0-2.808-.754-4.966-2.262-6.474-1.456-1.56-3.484-2.34-6.084-2.34s-4.654.78-6.162 2.34c-1.456 1.508-2.184 3.666-2.184 6.474v23.6339h-13.338v-43.5239zm52.743 36.27c0 2.028-.702 3.7439-2.106 5.148-1.404 1.4039-3.146 2.1059-5.226 2.1059-2.028 0-3.744-.702-5.148-2.1059-1.404-1.4041-2.106-3.12-2.106-5.148 0-2.0801.702-3.822 2.106-5.226s3.12-2.106 5.148-2.106c2.08 0 3.822.702 5.226 2.106s2.106 3.1459 2.106 5.226z" fill="#000"/><path d="m25.1117 85.228h5.8501v5.772h-7.1761c-7.436 0-11.1539-3.666-11.1539-10.998v-26.052h-5.53805v-5.772h5.53805v-10.608h7.1759v10.608h11.0761v5.772h-11.0761v26.052c0 1.924.3901 3.276 1.1701 4.056s2.1579 1.17 4.1339 1.17zm42.7804-3.978c2.86-2.912 4.29-6.786 4.29-11.622s-1.43-8.71-4.29-11.622c-2.808-2.912-6.2137-4.368-10.2177-4.368-3.952 0-7.3581 1.404-10.2181 4.212-2.808 2.808-4.2119 6.63-4.2119 11.466s1.4299 8.762 4.2899 11.778 6.2661 4.524 10.2181 4.524 7.3317-1.456 10.1397-4.368zm-11.4658 10.452c-5.824 0-10.686-2.08-14.586-6.24-3.9-4.212-5.85-9.568-5.85-16.068 0-6.552 1.924-11.83 5.772-15.834 3.9-4.056 8.7881-6.084 14.664-6.084 3.64 0 6.812.858 9.5158 2.574 2.756 1.716 4.836 3.952 6.24 6.708v-8.58h7.176v42.822h-7.176v-8.736c-1.404 2.808-3.484 5.096-6.24 6.864-2.7038 1.716-5.8758 2.574-9.5158 2.574zm41.7239-.702h-7.098v-57.72h7.098v33.852l16.3798-18.954h9.984l-20.202 21.294 20.202 21.528h-9.594l-16.7698-18.798zm50.8318.702c-6.136 0-11.128-2.028-14.976-6.084s-5.772-9.412-5.772-16.068 1.95-11.986 5.85-15.99c3.9-4.056 8.944-6.084 15.132-6.084 6.24 0 11.232 1.924 14.976 5.772 3.796 3.796 5.694 8.658 5.694 14.586 0 1.508-.104 2.912-.312 4.212h-34.086c.208 4.264 1.534 7.644 3.978 10.14 2.496 2.444 5.668 3.666 9.516 3.666 2.912 0 5.356-.65 7.332-1.95 2.028-1.3 3.51-3.016 4.446-5.148h7.644c-1.352 3.744-3.692 6.838-7.02 9.282-3.276 2.444-7.41 3.666-12.402 3.666zm13.494-24.804c-.052-4.108-1.352-7.384-3.9-9.828-2.548-2.496-5.72-3.744-9.516-3.744-3.744 0-6.864 1.222-9.36 3.666-2.496 2.392-3.874 5.694-4.134 9.906z" fill="#fff"/></svg>